<mxfile host="Electron" modified="2024-03-15T14:32:44.723Z" agent="Mozilla/5.0 (Windows NT 10.0; Win64; x64) AppleWebKit/537.36 (KHTML, like Gecko) draw.io/24.0.4 Chrome/120.0.6099.109 Electron/28.1.0 Safari/537.36" etag="FBF-Wy1ArSZ6k58X2_Zw" version="24.0.4" type="device">
  <diagram name="Pagina-1" id="YjfYWzAqHSG7mTVUZEVx">
    <mxGraphModel dx="1289" dy="1909" grid="1" gridSize="10" guides="1" tooltips="1" connect="1" arrows="1" fold="1" page="1" pageScale="1" pageWidth="827" pageHeight="1169" math="0" shadow="0">
      <root>
        <mxCell id="0" />
        <mxCell id="1" parent="0" />
        <mxCell id="iszFGnKtWHCGsxFUqVb4-21" style="edgeStyle=orthogonalEdgeStyle;rounded=0;orthogonalLoop=1;jettySize=auto;html=1;exitX=0.5;exitY=0;exitDx=0;exitDy=0;entryX=0.5;entryY=1;entryDx=0;entryDy=0;" edge="1" parent="1" source="iszFGnKtWHCGsxFUqVb4-1" target="iszFGnKtWHCGsxFUqVb4-18">
          <mxGeometry relative="1" as="geometry" />
        </mxCell>
        <mxCell id="iszFGnKtWHCGsxFUqVb4-23" style="edgeStyle=orthogonalEdgeStyle;rounded=0;orthogonalLoop=1;jettySize=auto;html=1;exitX=1;exitY=0.5;exitDx=0;exitDy=0;entryX=0;entryY=0.5;entryDx=0;entryDy=0;" edge="1" parent="1" source="iszFGnKtWHCGsxFUqVb4-1" target="iszFGnKtWHCGsxFUqVb4-22">
          <mxGeometry relative="1" as="geometry" />
        </mxCell>
        <mxCell id="iszFGnKtWHCGsxFUqVb4-26" style="edgeStyle=orthogonalEdgeStyle;rounded=0;orthogonalLoop=1;jettySize=auto;html=1;exitX=0.5;exitY=1;exitDx=0;exitDy=0;entryX=0.5;entryY=0;entryDx=0;entryDy=0;endArrow=doubleBlock;endFill=1;" edge="1" parent="1" source="iszFGnKtWHCGsxFUqVb4-1" target="iszFGnKtWHCGsxFUqVb4-25">
          <mxGeometry relative="1" as="geometry" />
        </mxCell>
        <mxCell id="iszFGnKtWHCGsxFUqVb4-119" style="edgeStyle=orthogonalEdgeStyle;rounded=0;orthogonalLoop=1;jettySize=auto;html=1;exitX=0;exitY=0.5;exitDx=0;exitDy=0;entryX=0;entryY=0.5;entryDx=0;entryDy=0;" edge="1" parent="1" source="iszFGnKtWHCGsxFUqVb4-1" target="iszFGnKtWHCGsxFUqVb4-116">
          <mxGeometry relative="1" as="geometry" />
        </mxCell>
        <mxCell id="iszFGnKtWHCGsxFUqVb4-120" style="edgeStyle=orthogonalEdgeStyle;rounded=0;orthogonalLoop=1;jettySize=auto;html=1;exitX=0;exitY=0.5;exitDx=0;exitDy=0;entryX=0;entryY=0.5;entryDx=0;entryDy=0;" edge="1" parent="1" source="iszFGnKtWHCGsxFUqVb4-1" target="iszFGnKtWHCGsxFUqVb4-115">
          <mxGeometry relative="1" as="geometry" />
        </mxCell>
        <mxCell id="iszFGnKtWHCGsxFUqVb4-121" style="edgeStyle=orthogonalEdgeStyle;rounded=0;orthogonalLoop=1;jettySize=auto;html=1;exitX=0;exitY=0.5;exitDx=0;exitDy=0;entryX=0;entryY=0.5;entryDx=0;entryDy=0;" edge="1" parent="1" source="iszFGnKtWHCGsxFUqVb4-1" target="iszFGnKtWHCGsxFUqVb4-113">
          <mxGeometry relative="1" as="geometry" />
        </mxCell>
        <mxCell id="iszFGnKtWHCGsxFUqVb4-122" style="edgeStyle=orthogonalEdgeStyle;rounded=0;orthogonalLoop=1;jettySize=auto;html=1;exitX=0;exitY=0.5;exitDx=0;exitDy=0;entryX=0;entryY=0.5;entryDx=0;entryDy=0;" edge="1" parent="1" source="iszFGnKtWHCGsxFUqVb4-1" target="iszFGnKtWHCGsxFUqVb4-111">
          <mxGeometry relative="1" as="geometry" />
        </mxCell>
        <mxCell id="iszFGnKtWHCGsxFUqVb4-123" style="edgeStyle=orthogonalEdgeStyle;rounded=0;orthogonalLoop=1;jettySize=auto;html=1;exitX=0;exitY=0.5;exitDx=0;exitDy=0;entryX=0;entryY=0.5;entryDx=0;entryDy=0;" edge="1" parent="1" source="iszFGnKtWHCGsxFUqVb4-1" target="iszFGnKtWHCGsxFUqVb4-109">
          <mxGeometry relative="1" as="geometry" />
        </mxCell>
        <mxCell id="iszFGnKtWHCGsxFUqVb4-1" value="Showtime" style="rounded=0;whiteSpace=wrap;html=1;" vertex="1" parent="1">
          <mxGeometry x="10" y="340" width="120" height="60" as="geometry" />
        </mxCell>
        <mxCell id="iszFGnKtWHCGsxFUqVb4-12" style="edgeStyle=orthogonalEdgeStyle;rounded=0;orthogonalLoop=1;jettySize=auto;html=1;exitX=0;exitY=0.5;exitDx=0;exitDy=0;entryX=1;entryY=0.5;entryDx=0;entryDy=0;" edge="1" parent="1" source="iszFGnKtWHCGsxFUqVb4-2" target="iszFGnKtWHCGsxFUqVb4-10">
          <mxGeometry relative="1" as="geometry" />
        </mxCell>
        <mxCell id="iszFGnKtWHCGsxFUqVb4-20" style="edgeStyle=orthogonalEdgeStyle;rounded=0;orthogonalLoop=1;jettySize=auto;html=1;exitX=0.5;exitY=1;exitDx=0;exitDy=0;entryX=0.5;entryY=0;entryDx=0;entryDy=0;endArrow=doubleBlock;endFill=1;" edge="1" parent="1" source="iszFGnKtWHCGsxFUqVb4-2" target="iszFGnKtWHCGsxFUqVb4-18">
          <mxGeometry relative="1" as="geometry" />
        </mxCell>
        <mxCell id="iszFGnKtWHCGsxFUqVb4-71" style="edgeStyle=orthogonalEdgeStyle;rounded=0;orthogonalLoop=1;jettySize=auto;html=1;exitX=0.25;exitY=0;exitDx=0;exitDy=0;entryX=0;entryY=0.5;entryDx=0;entryDy=0;" edge="1" parent="1" source="iszFGnKtWHCGsxFUqVb4-2" target="iszFGnKtWHCGsxFUqVb4-63">
          <mxGeometry relative="1" as="geometry" />
        </mxCell>
        <mxCell id="iszFGnKtWHCGsxFUqVb4-74" style="edgeStyle=orthogonalEdgeStyle;rounded=0;orthogonalLoop=1;jettySize=auto;html=1;exitX=0.25;exitY=0;exitDx=0;exitDy=0;entryX=0;entryY=0.5;entryDx=0;entryDy=0;" edge="1" parent="1" source="iszFGnKtWHCGsxFUqVb4-2" target="iszFGnKtWHCGsxFUqVb4-65">
          <mxGeometry relative="1" as="geometry" />
        </mxCell>
        <mxCell id="iszFGnKtWHCGsxFUqVb4-75" style="edgeStyle=orthogonalEdgeStyle;rounded=0;orthogonalLoop=1;jettySize=auto;html=1;exitX=0.25;exitY=0;exitDx=0;exitDy=0;entryX=0;entryY=0.5;entryDx=0;entryDy=0;" edge="1" parent="1" source="iszFGnKtWHCGsxFUqVb4-2" target="iszFGnKtWHCGsxFUqVb4-67">
          <mxGeometry relative="1" as="geometry" />
        </mxCell>
        <mxCell id="iszFGnKtWHCGsxFUqVb4-76" style="edgeStyle=orthogonalEdgeStyle;rounded=0;orthogonalLoop=1;jettySize=auto;html=1;exitX=0.25;exitY=0;exitDx=0;exitDy=0;entryX=0;entryY=0.5;entryDx=0;entryDy=0;" edge="1" parent="1" source="iszFGnKtWHCGsxFUqVb4-2" target="iszFGnKtWHCGsxFUqVb4-69">
          <mxGeometry relative="1" as="geometry" />
        </mxCell>
        <mxCell id="iszFGnKtWHCGsxFUqVb4-77" style="edgeStyle=orthogonalEdgeStyle;rounded=0;orthogonalLoop=1;jettySize=auto;html=1;exitX=0.25;exitY=0;exitDx=0;exitDy=0;entryX=0;entryY=0.5;entryDx=0;entryDy=0;" edge="1" parent="1" source="iszFGnKtWHCGsxFUqVb4-2" target="iszFGnKtWHCGsxFUqVb4-72">
          <mxGeometry relative="1" as="geometry" />
        </mxCell>
        <mxCell id="iszFGnKtWHCGsxFUqVb4-2" value="Theater" style="rounded=0;whiteSpace=wrap;html=1;" vertex="1" parent="1">
          <mxGeometry x="10" y="70" width="120" height="60" as="geometry" />
        </mxCell>
        <mxCell id="iszFGnKtWHCGsxFUqVb4-11" style="edgeStyle=orthogonalEdgeStyle;rounded=0;orthogonalLoop=1;jettySize=auto;html=1;exitX=1;exitY=0.5;exitDx=0;exitDy=0;entryX=0;entryY=0.5;entryDx=0;entryDy=0;endArrow=doubleBlock;endFill=1;" edge="1" parent="1" source="iszFGnKtWHCGsxFUqVb4-3" target="iszFGnKtWHCGsxFUqVb4-10">
          <mxGeometry relative="1" as="geometry" />
        </mxCell>
        <mxCell id="iszFGnKtWHCGsxFUqVb4-32" style="edgeStyle=orthogonalEdgeStyle;rounded=0;orthogonalLoop=1;jettySize=auto;html=1;exitX=0.5;exitY=1;exitDx=0;exitDy=0;entryX=0.5;entryY=0;entryDx=0;entryDy=0;endArrow=doubleBlock;endFill=1;" edge="1" parent="1" source="iszFGnKtWHCGsxFUqVb4-3" target="iszFGnKtWHCGsxFUqVb4-31">
          <mxGeometry relative="1" as="geometry" />
        </mxCell>
        <mxCell id="iszFGnKtWHCGsxFUqVb4-59" style="edgeStyle=orthogonalEdgeStyle;rounded=0;orthogonalLoop=1;jettySize=auto;html=1;exitX=0.25;exitY=0;exitDx=0;exitDy=0;entryX=0;entryY=0.5;entryDx=0;entryDy=0;" edge="1" parent="1" source="iszFGnKtWHCGsxFUqVb4-3" target="iszFGnKtWHCGsxFUqVb4-47">
          <mxGeometry relative="1" as="geometry" />
        </mxCell>
        <mxCell id="iszFGnKtWHCGsxFUqVb4-60" style="edgeStyle=orthogonalEdgeStyle;rounded=0;orthogonalLoop=1;jettySize=auto;html=1;exitX=0.25;exitY=0;exitDx=0;exitDy=0;entryX=0;entryY=0.5;entryDx=0;entryDy=0;" edge="1" parent="1" source="iszFGnKtWHCGsxFUqVb4-3" target="iszFGnKtWHCGsxFUqVb4-49">
          <mxGeometry relative="1" as="geometry" />
        </mxCell>
        <mxCell id="iszFGnKtWHCGsxFUqVb4-61" style="edgeStyle=orthogonalEdgeStyle;rounded=0;orthogonalLoop=1;jettySize=auto;html=1;exitX=0.25;exitY=0;exitDx=0;exitDy=0;entryX=0;entryY=0.5;entryDx=0;entryDy=0;" edge="1" parent="1" source="iszFGnKtWHCGsxFUqVb4-3" target="iszFGnKtWHCGsxFUqVb4-51">
          <mxGeometry relative="1" as="geometry" />
        </mxCell>
        <mxCell id="iszFGnKtWHCGsxFUqVb4-62" style="edgeStyle=orthogonalEdgeStyle;rounded=0;orthogonalLoop=1;jettySize=auto;html=1;exitX=0.25;exitY=0;exitDx=0;exitDy=0;entryX=0;entryY=0.5;entryDx=0;entryDy=0;endArrow=none;" edge="1" parent="1" source="iszFGnKtWHCGsxFUqVb4-3" target="iszFGnKtWHCGsxFUqVb4-55">
          <mxGeometry relative="1" as="geometry" />
        </mxCell>
        <mxCell id="iszFGnKtWHCGsxFUqVb4-3" value="Cinema" style="rounded=0;whiteSpace=wrap;html=1;" vertex="1" parent="1">
          <mxGeometry x="-360" y="70" width="120" height="60" as="geometry" />
        </mxCell>
        <mxCell id="iszFGnKtWHCGsxFUqVb4-33" style="edgeStyle=orthogonalEdgeStyle;rounded=0;orthogonalLoop=1;jettySize=auto;html=1;exitX=0.5;exitY=0;exitDx=0;exitDy=0;entryX=0.5;entryY=1;entryDx=0;entryDy=0;" edge="1" parent="1" source="iszFGnKtWHCGsxFUqVb4-4" target="iszFGnKtWHCGsxFUqVb4-31">
          <mxGeometry relative="1" as="geometry" />
        </mxCell>
        <mxCell id="iszFGnKtWHCGsxFUqVb4-202" style="edgeStyle=orthogonalEdgeStyle;rounded=0;orthogonalLoop=1;jettySize=auto;html=1;exitX=0;exitY=1;exitDx=0;exitDy=0;entryX=0;entryY=0.5;entryDx=0;entryDy=0;" edge="1" parent="1" source="iszFGnKtWHCGsxFUqVb4-4" target="iszFGnKtWHCGsxFUqVb4-197">
          <mxGeometry relative="1" as="geometry" />
        </mxCell>
        <mxCell id="iszFGnKtWHCGsxFUqVb4-203" style="edgeStyle=orthogonalEdgeStyle;rounded=0;orthogonalLoop=1;jettySize=auto;html=1;exitX=0;exitY=1;exitDx=0;exitDy=0;entryX=0;entryY=0.5;entryDx=0;entryDy=0;" edge="1" parent="1" source="iszFGnKtWHCGsxFUqVb4-4" target="iszFGnKtWHCGsxFUqVb4-196">
          <mxGeometry relative="1" as="geometry" />
        </mxCell>
        <mxCell id="iszFGnKtWHCGsxFUqVb4-204" style="edgeStyle=orthogonalEdgeStyle;rounded=0;orthogonalLoop=1;jettySize=auto;html=1;exitX=0;exitY=1;exitDx=0;exitDy=0;entryX=0;entryY=0.5;entryDx=0;entryDy=0;" edge="1" parent="1" source="iszFGnKtWHCGsxFUqVb4-4" target="iszFGnKtWHCGsxFUqVb4-194">
          <mxGeometry relative="1" as="geometry" />
        </mxCell>
        <mxCell id="iszFGnKtWHCGsxFUqVb4-205" style="edgeStyle=orthogonalEdgeStyle;rounded=0;orthogonalLoop=1;jettySize=auto;html=1;exitX=0;exitY=1;exitDx=0;exitDy=0;entryX=0;entryY=0.5;entryDx=0;entryDy=0;" edge="1" parent="1" source="iszFGnKtWHCGsxFUqVb4-4" target="iszFGnKtWHCGsxFUqVb4-192">
          <mxGeometry relative="1" as="geometry" />
        </mxCell>
        <mxCell id="iszFGnKtWHCGsxFUqVb4-206" style="edgeStyle=orthogonalEdgeStyle;rounded=0;orthogonalLoop=1;jettySize=auto;html=1;exitX=0;exitY=1;exitDx=0;exitDy=0;entryX=0;entryY=0.5;entryDx=0;entryDy=0;" edge="1" parent="1" source="iszFGnKtWHCGsxFUqVb4-4" target="iszFGnKtWHCGsxFUqVb4-190">
          <mxGeometry relative="1" as="geometry" />
        </mxCell>
        <mxCell id="iszFGnKtWHCGsxFUqVb4-207" style="edgeStyle=orthogonalEdgeStyle;rounded=0;orthogonalLoop=1;jettySize=auto;html=1;exitX=0;exitY=1;exitDx=0;exitDy=0;entryX=0;entryY=0.5;entryDx=0;entryDy=0;" edge="1" parent="1" source="iszFGnKtWHCGsxFUqVb4-4" target="iszFGnKtWHCGsxFUqVb4-200">
          <mxGeometry relative="1" as="geometry" />
        </mxCell>
        <mxCell id="iszFGnKtWHCGsxFUqVb4-4" value="Employee" style="rounded=0;whiteSpace=wrap;html=1;" vertex="1" parent="1">
          <mxGeometry x="-360" y="360" width="120" height="60" as="geometry" />
        </mxCell>
        <mxCell id="iszFGnKtWHCGsxFUqVb4-30" style="edgeStyle=orthogonalEdgeStyle;rounded=0;orthogonalLoop=1;jettySize=auto;html=1;exitX=0;exitY=0.5;exitDx=0;exitDy=0;entryX=1;entryY=0.5;entryDx=0;entryDy=0;endArrow=doubleBlock;endFill=1;" edge="1" parent="1" source="iszFGnKtWHCGsxFUqVb4-5" target="iszFGnKtWHCGsxFUqVb4-28">
          <mxGeometry relative="1" as="geometry" />
        </mxCell>
        <mxCell id="iszFGnKtWHCGsxFUqVb4-39" style="edgeStyle=orthogonalEdgeStyle;rounded=0;orthogonalLoop=1;jettySize=auto;html=1;exitX=1;exitY=0.5;exitDx=0;exitDy=0;entryX=0;entryY=0.5;entryDx=0;entryDy=0;endArrow=doubleBlock;endFill=1;" edge="1" parent="1" source="iszFGnKtWHCGsxFUqVb4-5" target="iszFGnKtWHCGsxFUqVb4-36">
          <mxGeometry relative="1" as="geometry" />
        </mxCell>
        <mxCell id="iszFGnKtWHCGsxFUqVb4-164" style="edgeStyle=orthogonalEdgeStyle;rounded=0;orthogonalLoop=1;jettySize=auto;html=1;exitX=0.25;exitY=1;exitDx=0;exitDy=0;entryX=0;entryY=0.5;entryDx=0;entryDy=0;" edge="1" parent="1" source="iszFGnKtWHCGsxFUqVb4-5" target="iszFGnKtWHCGsxFUqVb4-161">
          <mxGeometry relative="1" as="geometry" />
        </mxCell>
        <mxCell id="iszFGnKtWHCGsxFUqVb4-165" style="edgeStyle=orthogonalEdgeStyle;rounded=0;orthogonalLoop=1;jettySize=auto;html=1;exitX=0.25;exitY=1;exitDx=0;exitDy=0;entryX=0;entryY=0.5;entryDx=0;entryDy=0;" edge="1" parent="1" source="iszFGnKtWHCGsxFUqVb4-5" target="iszFGnKtWHCGsxFUqVb4-160">
          <mxGeometry relative="1" as="geometry" />
        </mxCell>
        <mxCell id="iszFGnKtWHCGsxFUqVb4-167" style="edgeStyle=orthogonalEdgeStyle;rounded=0;orthogonalLoop=1;jettySize=auto;html=1;exitX=0.25;exitY=1;exitDx=0;exitDy=0;entryX=0;entryY=0.5;entryDx=0;entryDy=0;" edge="1" parent="1" source="iszFGnKtWHCGsxFUqVb4-5" target="iszFGnKtWHCGsxFUqVb4-158">
          <mxGeometry relative="1" as="geometry" />
        </mxCell>
        <mxCell id="iszFGnKtWHCGsxFUqVb4-168" style="edgeStyle=orthogonalEdgeStyle;rounded=0;orthogonalLoop=1;jettySize=auto;html=1;exitX=0.25;exitY=1;exitDx=0;exitDy=0;entryX=0;entryY=0.5;entryDx=0;entryDy=0;" edge="1" parent="1" source="iszFGnKtWHCGsxFUqVb4-5" target="iszFGnKtWHCGsxFUqVb4-156">
          <mxGeometry relative="1" as="geometry" />
        </mxCell>
        <mxCell id="iszFGnKtWHCGsxFUqVb4-169" style="edgeStyle=orthogonalEdgeStyle;rounded=0;orthogonalLoop=1;jettySize=auto;html=1;exitX=0.25;exitY=1;exitDx=0;exitDy=0;entryX=0;entryY=0.5;entryDx=0;entryDy=0;" edge="1" parent="1" source="iszFGnKtWHCGsxFUqVb4-5" target="iszFGnKtWHCGsxFUqVb4-154">
          <mxGeometry relative="1" as="geometry" />
        </mxCell>
        <mxCell id="iszFGnKtWHCGsxFUqVb4-5" value="Customer" style="rounded=0;whiteSpace=wrap;html=1;" vertex="1" parent="1">
          <mxGeometry x="420" y="585" width="120" height="60" as="geometry" />
        </mxCell>
        <mxCell id="iszFGnKtWHCGsxFUqVb4-24" style="edgeStyle=orthogonalEdgeStyle;rounded=0;orthogonalLoop=1;jettySize=auto;html=1;exitX=0;exitY=0.5;exitDx=0;exitDy=0;entryX=1;entryY=0.5;entryDx=0;entryDy=0;endArrow=doubleBlock;endFill=1;" edge="1" parent="1" source="iszFGnKtWHCGsxFUqVb4-6" target="iszFGnKtWHCGsxFUqVb4-22">
          <mxGeometry relative="1" as="geometry" />
        </mxCell>
        <mxCell id="iszFGnKtWHCGsxFUqVb4-37" style="edgeStyle=orthogonalEdgeStyle;rounded=0;orthogonalLoop=1;jettySize=auto;html=1;exitX=1;exitY=0.5;exitDx=0;exitDy=0;entryX=0;entryY=0.5;entryDx=0;entryDy=0;endArrow=doubleBlock;endFill=1;" edge="1" parent="1" source="iszFGnKtWHCGsxFUqVb4-6" target="iszFGnKtWHCGsxFUqVb4-35">
          <mxGeometry relative="1" as="geometry" />
        </mxCell>
        <mxCell id="iszFGnKtWHCGsxFUqVb4-101" style="edgeStyle=orthogonalEdgeStyle;rounded=0;orthogonalLoop=1;jettySize=auto;html=1;exitX=0.25;exitY=0;exitDx=0;exitDy=0;entryX=0;entryY=0.5;entryDx=0;entryDy=0;" edge="1" parent="1" source="iszFGnKtWHCGsxFUqVb4-6" target="iszFGnKtWHCGsxFUqVb4-88">
          <mxGeometry relative="1" as="geometry" />
        </mxCell>
        <mxCell id="iszFGnKtWHCGsxFUqVb4-102" style="edgeStyle=orthogonalEdgeStyle;rounded=0;orthogonalLoop=1;jettySize=auto;html=1;exitX=0.25;exitY=0;exitDx=0;exitDy=0;entryX=0;entryY=0.5;entryDx=0;entryDy=0;" edge="1" parent="1" source="iszFGnKtWHCGsxFUqVb4-6" target="iszFGnKtWHCGsxFUqVb4-90">
          <mxGeometry relative="1" as="geometry" />
        </mxCell>
        <mxCell id="iszFGnKtWHCGsxFUqVb4-103" style="edgeStyle=orthogonalEdgeStyle;rounded=0;orthogonalLoop=1;jettySize=auto;html=1;exitX=0.25;exitY=0;exitDx=0;exitDy=0;entryX=0;entryY=0.5;entryDx=0;entryDy=0;" edge="1" parent="1" source="iszFGnKtWHCGsxFUqVb4-6" target="iszFGnKtWHCGsxFUqVb4-92">
          <mxGeometry relative="1" as="geometry" />
        </mxCell>
        <mxCell id="iszFGnKtWHCGsxFUqVb4-104" style="edgeStyle=orthogonalEdgeStyle;rounded=0;orthogonalLoop=1;jettySize=auto;html=1;exitX=0.25;exitY=0;exitDx=0;exitDy=0;entryX=0;entryY=0.5;entryDx=0;entryDy=0;" edge="1" parent="1" source="iszFGnKtWHCGsxFUqVb4-6" target="iszFGnKtWHCGsxFUqVb4-94">
          <mxGeometry relative="1" as="geometry" />
        </mxCell>
        <mxCell id="iszFGnKtWHCGsxFUqVb4-105" style="edgeStyle=orthogonalEdgeStyle;rounded=0;orthogonalLoop=1;jettySize=auto;html=1;exitX=0.25;exitY=0;exitDx=0;exitDy=0;entryX=0;entryY=0.5;entryDx=0;entryDy=0;" edge="1" parent="1" source="iszFGnKtWHCGsxFUqVb4-6" target="iszFGnKtWHCGsxFUqVb4-96">
          <mxGeometry relative="1" as="geometry" />
        </mxCell>
        <mxCell id="iszFGnKtWHCGsxFUqVb4-106" style="edgeStyle=orthogonalEdgeStyle;rounded=0;orthogonalLoop=1;jettySize=auto;html=1;exitX=0.25;exitY=0;exitDx=0;exitDy=0;entryX=0;entryY=0.5;entryDx=0;entryDy=0;" edge="1" parent="1" source="iszFGnKtWHCGsxFUqVb4-6" target="iszFGnKtWHCGsxFUqVb4-99">
          <mxGeometry relative="1" as="geometry" />
        </mxCell>
        <mxCell id="iszFGnKtWHCGsxFUqVb4-6" value="Movie" style="rounded=0;whiteSpace=wrap;html=1;" vertex="1" parent="1">
          <mxGeometry x="414" y="340" width="120" height="60" as="geometry" />
        </mxCell>
        <mxCell id="iszFGnKtWHCGsxFUqVb4-27" style="edgeStyle=orthogonalEdgeStyle;rounded=0;orthogonalLoop=1;jettySize=auto;html=1;exitX=0.5;exitY=0;exitDx=0;exitDy=0;entryX=0.5;entryY=1;entryDx=0;entryDy=0;" edge="1" parent="1" source="iszFGnKtWHCGsxFUqVb4-7" target="iszFGnKtWHCGsxFUqVb4-25">
          <mxGeometry relative="1" as="geometry" />
        </mxCell>
        <mxCell id="iszFGnKtWHCGsxFUqVb4-29" style="edgeStyle=orthogonalEdgeStyle;rounded=0;orthogonalLoop=1;jettySize=auto;html=1;exitX=1;exitY=0.5;exitDx=0;exitDy=0;entryX=0;entryY=0.5;entryDx=0;entryDy=0;endArrow=classic;endFill=1;" edge="1" parent="1" source="iszFGnKtWHCGsxFUqVb4-7" target="iszFGnKtWHCGsxFUqVb4-28">
          <mxGeometry relative="1" as="geometry" />
        </mxCell>
        <mxCell id="iszFGnKtWHCGsxFUqVb4-144" style="edgeStyle=orthogonalEdgeStyle;rounded=0;orthogonalLoop=1;jettySize=auto;html=1;exitX=0.25;exitY=1;exitDx=0;exitDy=0;entryX=0;entryY=0.5;entryDx=0;entryDy=0;" edge="1" parent="1" source="iszFGnKtWHCGsxFUqVb4-7" target="iszFGnKtWHCGsxFUqVb4-141">
          <mxGeometry relative="1" as="geometry" />
        </mxCell>
        <mxCell id="iszFGnKtWHCGsxFUqVb4-145" style="edgeStyle=orthogonalEdgeStyle;rounded=0;orthogonalLoop=1;jettySize=auto;html=1;exitX=0.25;exitY=1;exitDx=0;exitDy=0;entryX=0;entryY=0.5;entryDx=0;entryDy=0;" edge="1" parent="1" source="iszFGnKtWHCGsxFUqVb4-7" target="iszFGnKtWHCGsxFUqVb4-140">
          <mxGeometry relative="1" as="geometry" />
        </mxCell>
        <mxCell id="iszFGnKtWHCGsxFUqVb4-146" style="edgeStyle=orthogonalEdgeStyle;rounded=0;orthogonalLoop=1;jettySize=auto;html=1;exitX=0.25;exitY=1;exitDx=0;exitDy=0;entryX=0;entryY=0.5;entryDx=0;entryDy=0;" edge="1" parent="1" source="iszFGnKtWHCGsxFUqVb4-7" target="iszFGnKtWHCGsxFUqVb4-138">
          <mxGeometry relative="1" as="geometry" />
        </mxCell>
        <mxCell id="iszFGnKtWHCGsxFUqVb4-147" style="edgeStyle=orthogonalEdgeStyle;rounded=0;orthogonalLoop=1;jettySize=auto;html=1;exitX=0.25;exitY=1;exitDx=0;exitDy=0;entryX=0;entryY=0.5;entryDx=0;entryDy=0;" edge="1" parent="1" source="iszFGnKtWHCGsxFUqVb4-7" target="iszFGnKtWHCGsxFUqVb4-136">
          <mxGeometry relative="1" as="geometry" />
        </mxCell>
        <mxCell id="iszFGnKtWHCGsxFUqVb4-148" style="edgeStyle=orthogonalEdgeStyle;rounded=0;orthogonalLoop=1;jettySize=auto;html=1;exitX=0.25;exitY=1;exitDx=0;exitDy=0;entryX=0;entryY=0.5;entryDx=0;entryDy=0;" edge="1" parent="1" source="iszFGnKtWHCGsxFUqVb4-7" target="iszFGnKtWHCGsxFUqVb4-134">
          <mxGeometry relative="1" as="geometry" />
        </mxCell>
        <mxCell id="iszFGnKtWHCGsxFUqVb4-7" value="Ticket" style="rounded=0;whiteSpace=wrap;html=1;" vertex="1" parent="1">
          <mxGeometry x="10" y="585" width="120" height="60" as="geometry" />
        </mxCell>
        <mxCell id="iszFGnKtWHCGsxFUqVb4-38" style="edgeStyle=orthogonalEdgeStyle;rounded=0;orthogonalLoop=1;jettySize=auto;html=1;exitX=0.5;exitY=0;exitDx=0;exitDy=0;entryX=0.5;entryY=1;entryDx=0;entryDy=0;" edge="1" parent="1" source="iszFGnKtWHCGsxFUqVb4-8" target="iszFGnKtWHCGsxFUqVb4-35">
          <mxGeometry relative="1" as="geometry" />
        </mxCell>
        <mxCell id="iszFGnKtWHCGsxFUqVb4-40" style="edgeStyle=orthogonalEdgeStyle;rounded=0;orthogonalLoop=1;jettySize=auto;html=1;exitX=0.5;exitY=1;exitDx=0;exitDy=0;entryX=0.5;entryY=0;entryDx=0;entryDy=0;" edge="1" parent="1" source="iszFGnKtWHCGsxFUqVb4-8" target="iszFGnKtWHCGsxFUqVb4-36">
          <mxGeometry relative="1" as="geometry" />
        </mxCell>
        <mxCell id="iszFGnKtWHCGsxFUqVb4-183" style="edgeStyle=orthogonalEdgeStyle;rounded=0;orthogonalLoop=1;jettySize=auto;html=1;exitX=1;exitY=0.5;exitDx=0;exitDy=0;entryX=0;entryY=0.5;entryDx=0;entryDy=0;" edge="1" parent="1" source="iszFGnKtWHCGsxFUqVb4-8" target="iszFGnKtWHCGsxFUqVb4-178">
          <mxGeometry relative="1" as="geometry" />
        </mxCell>
        <mxCell id="iszFGnKtWHCGsxFUqVb4-184" style="edgeStyle=orthogonalEdgeStyle;rounded=0;orthogonalLoop=1;jettySize=auto;html=1;exitX=1;exitY=0.5;exitDx=0;exitDy=0;entryX=0;entryY=0.5;entryDx=0;entryDy=0;" edge="1" parent="1" source="iszFGnKtWHCGsxFUqVb4-8" target="iszFGnKtWHCGsxFUqVb4-177">
          <mxGeometry relative="1" as="geometry" />
        </mxCell>
        <mxCell id="iszFGnKtWHCGsxFUqVb4-185" style="edgeStyle=orthogonalEdgeStyle;rounded=0;orthogonalLoop=1;jettySize=auto;html=1;exitX=1;exitY=0.5;exitDx=0;exitDy=0;entryX=0;entryY=0.5;entryDx=0;entryDy=0;" edge="1" parent="1" source="iszFGnKtWHCGsxFUqVb4-8" target="iszFGnKtWHCGsxFUqVb4-175">
          <mxGeometry relative="1" as="geometry" />
        </mxCell>
        <mxCell id="iszFGnKtWHCGsxFUqVb4-186" style="edgeStyle=orthogonalEdgeStyle;rounded=0;orthogonalLoop=1;jettySize=auto;html=1;exitX=1;exitY=0.5;exitDx=0;exitDy=0;entryX=0;entryY=0.5;entryDx=0;entryDy=0;" edge="1" parent="1" source="iszFGnKtWHCGsxFUqVb4-8" target="iszFGnKtWHCGsxFUqVb4-173">
          <mxGeometry relative="1" as="geometry" />
        </mxCell>
        <mxCell id="iszFGnKtWHCGsxFUqVb4-188" style="edgeStyle=orthogonalEdgeStyle;rounded=0;orthogonalLoop=1;jettySize=auto;html=1;exitX=1;exitY=0.5;exitDx=0;exitDy=0;entryX=0;entryY=0.5;entryDx=0;entryDy=0;" edge="1" parent="1" source="iszFGnKtWHCGsxFUqVb4-8" target="iszFGnKtWHCGsxFUqVb4-171">
          <mxGeometry relative="1" as="geometry" />
        </mxCell>
        <mxCell id="iszFGnKtWHCGsxFUqVb4-189" style="edgeStyle=orthogonalEdgeStyle;rounded=0;orthogonalLoop=1;jettySize=auto;html=1;exitX=1;exitY=0.5;exitDx=0;exitDy=0;entryX=0;entryY=0.5;entryDx=0;entryDy=0;" edge="1" parent="1" source="iszFGnKtWHCGsxFUqVb4-8" target="iszFGnKtWHCGsxFUqVb4-181">
          <mxGeometry relative="1" as="geometry" />
        </mxCell>
        <mxCell id="iszFGnKtWHCGsxFUqVb4-8" value="Review" style="rounded=0;whiteSpace=wrap;html=1;" vertex="1" parent="1">
          <mxGeometry x="660" y="460" width="120" height="60" as="geometry" />
        </mxCell>
        <mxCell id="iszFGnKtWHCGsxFUqVb4-10" value="contiene" style="rhombus;whiteSpace=wrap;html=1;" vertex="1" parent="1">
          <mxGeometry x="-150" y="60" width="80" height="80" as="geometry" />
        </mxCell>
        <mxCell id="iszFGnKtWHCGsxFUqVb4-13" value="" style="endArrow=none;html=1;rounded=0;" edge="1" parent="1">
          <mxGeometry width="50" height="50" relative="1" as="geometry">
            <mxPoint x="-210" y="120" as="sourcePoint" />
            <mxPoint x="-210" y="80" as="targetPoint" />
          </mxGeometry>
        </mxCell>
        <mxCell id="iszFGnKtWHCGsxFUqVb4-17" value="&lt;b&gt;&lt;font style=&quot;font-size: 14px;&quot;&gt;DIAGRAMMA ER - CINEMA&lt;/font&gt;&lt;/b&gt;" style="text;html=1;align=center;verticalAlign=middle;whiteSpace=wrap;rounded=0;" vertex="1" parent="1">
          <mxGeometry x="-260" y="-190" width="240" height="30" as="geometry" />
        </mxCell>
        <mxCell id="iszFGnKtWHCGsxFUqVb4-18" value="fa" style="rhombus;whiteSpace=wrap;html=1;" vertex="1" parent="1">
          <mxGeometry x="30" y="190" width="80" height="80" as="geometry" />
        </mxCell>
        <mxCell id="iszFGnKtWHCGsxFUqVb4-22" value="si riferisce" style="rhombus;whiteSpace=wrap;html=1;" vertex="1" parent="1">
          <mxGeometry x="240" y="330" width="80" height="80" as="geometry" />
        </mxCell>
        <mxCell id="iszFGnKtWHCGsxFUqVb4-25" value="si riferisce" style="rhombus;whiteSpace=wrap;html=1;" vertex="1" parent="1">
          <mxGeometry x="30" y="450" width="80" height="80" as="geometry" />
        </mxCell>
        <mxCell id="iszFGnKtWHCGsxFUqVb4-28" value="compra" style="rhombus;whiteSpace=wrap;html=1;" vertex="1" parent="1">
          <mxGeometry x="240" y="575" width="80" height="80" as="geometry" />
        </mxCell>
        <mxCell id="iszFGnKtWHCGsxFUqVb4-31" value="lavora" style="rhombus;whiteSpace=wrap;html=1;" vertex="1" parent="1">
          <mxGeometry x="-340" y="200" width="80" height="80" as="geometry" />
        </mxCell>
        <mxCell id="iszFGnKtWHCGsxFUqVb4-34" value="" style="endArrow=none;html=1;rounded=0;" edge="1" parent="1">
          <mxGeometry width="50" height="50" relative="1" as="geometry">
            <mxPoint x="-320" y="160" as="sourcePoint" />
            <mxPoint x="-280" y="160" as="targetPoint" />
          </mxGeometry>
        </mxCell>
        <mxCell id="iszFGnKtWHCGsxFUqVb4-35" value="è recensita" style="rhombus;whiteSpace=wrap;html=1;" vertex="1" parent="1">
          <mxGeometry x="680" y="330" width="80" height="80" as="geometry" />
        </mxCell>
        <mxCell id="iszFGnKtWHCGsxFUqVb4-36" value="descrive" style="rhombus;whiteSpace=wrap;html=1;" vertex="1" parent="1">
          <mxGeometry x="680" y="575" width="80" height="80" as="geometry" />
        </mxCell>
        <mxCell id="iszFGnKtWHCGsxFUqVb4-41" value="" style="endArrow=none;html=1;rounded=0;" edge="1" parent="1">
          <mxGeometry width="50" height="50" relative="1" as="geometry">
            <mxPoint x="50" y="420" as="sourcePoint" />
            <mxPoint x="90" y="420" as="targetPoint" />
          </mxGeometry>
        </mxCell>
        <mxCell id="iszFGnKtWHCGsxFUqVb4-42" value="" style="endArrow=none;html=1;rounded=0;" edge="1" parent="1">
          <mxGeometry width="50" height="50" relative="1" as="geometry">
            <mxPoint x="380" y="390" as="sourcePoint" />
            <mxPoint x="380" y="350" as="targetPoint" />
          </mxGeometry>
        </mxCell>
        <mxCell id="iszFGnKtWHCGsxFUqVb4-43" value="" style="endArrow=none;html=1;rounded=0;" edge="1" parent="1">
          <mxGeometry width="50" height="50" relative="1" as="geometry">
            <mxPoint x="40" y="150" as="sourcePoint" />
            <mxPoint x="100" y="150" as="targetPoint" />
          </mxGeometry>
        </mxCell>
        <mxCell id="iszFGnKtWHCGsxFUqVb4-44" value="" style="endArrow=none;html=1;rounded=0;" edge="1" parent="1">
          <mxGeometry width="50" height="50" relative="1" as="geometry">
            <mxPoint x="570" y="390" as="sourcePoint" />
            <mxPoint x="570" y="350" as="targetPoint" />
          </mxGeometry>
        </mxCell>
        <mxCell id="iszFGnKtWHCGsxFUqVb4-45" value="" style="endArrow=none;html=1;rounded=0;" edge="1" parent="1">
          <mxGeometry width="50" height="50" relative="1" as="geometry">
            <mxPoint x="560" y="635" as="sourcePoint" />
            <mxPoint x="560" y="595" as="targetPoint" />
          </mxGeometry>
        </mxCell>
        <mxCell id="iszFGnKtWHCGsxFUqVb4-46" value="" style="endArrow=none;html=1;rounded=0;" edge="1" parent="1">
          <mxGeometry width="50" height="50" relative="1" as="geometry">
            <mxPoint x="400" y="632.5" as="sourcePoint" />
            <mxPoint x="400" y="597.5" as="targetPoint" />
          </mxGeometry>
        </mxCell>
        <mxCell id="iszFGnKtWHCGsxFUqVb4-47" value="" style="ellipse;whiteSpace=wrap;html=1;aspect=fixed;fillColor=#000000;" vertex="1" parent="1">
          <mxGeometry x="-290" y="20" width="40" height="40" as="geometry" />
        </mxCell>
        <mxCell id="iszFGnKtWHCGsxFUqVb4-48" value="CinemaID" style="text;html=1;align=center;verticalAlign=middle;whiteSpace=wrap;rounded=0;" vertex="1" parent="1">
          <mxGeometry x="-250" y="25" width="60" height="30" as="geometry" />
        </mxCell>
        <mxCell id="iszFGnKtWHCGsxFUqVb4-49" value="" style="ellipse;whiteSpace=wrap;html=1;aspect=fixed;" vertex="1" parent="1">
          <mxGeometry x="-290" y="-30" width="40" height="40" as="geometry" />
        </mxCell>
        <mxCell id="iszFGnKtWHCGsxFUqVb4-50" value="Name" style="text;html=1;align=center;verticalAlign=middle;whiteSpace=wrap;rounded=0;" vertex="1" parent="1">
          <mxGeometry x="-250" y="-25" width="60" height="30" as="geometry" />
        </mxCell>
        <mxCell id="iszFGnKtWHCGsxFUqVb4-51" value="" style="ellipse;whiteSpace=wrap;html=1;aspect=fixed;" vertex="1" parent="1">
          <mxGeometry x="-290" y="-80" width="40" height="40" as="geometry" />
        </mxCell>
        <mxCell id="iszFGnKtWHCGsxFUqVb4-52" value="Address" style="text;html=1;align=center;verticalAlign=middle;whiteSpace=wrap;rounded=0;" vertex="1" parent="1">
          <mxGeometry x="-250" y="-75" width="60" height="30" as="geometry" />
        </mxCell>
        <mxCell id="iszFGnKtWHCGsxFUqVb4-55" value="" style="ellipse;whiteSpace=wrap;html=1;aspect=fixed;" vertex="1" parent="1">
          <mxGeometry x="-290" y="-130" width="40" height="40" as="geometry" />
        </mxCell>
        <mxCell id="iszFGnKtWHCGsxFUqVb4-56" value="Phone" style="text;html=1;align=center;verticalAlign=middle;whiteSpace=wrap;rounded=0;" vertex="1" parent="1">
          <mxGeometry x="-250" y="-125" width="60" height="30" as="geometry" />
        </mxCell>
        <mxCell id="iszFGnKtWHCGsxFUqVb4-63" value="" style="ellipse;whiteSpace=wrap;html=1;aspect=fixed;fillColor=#000000;" vertex="1" parent="1">
          <mxGeometry x="90" y="20" width="40" height="40" as="geometry" />
        </mxCell>
        <mxCell id="iszFGnKtWHCGsxFUqVb4-64" value="TheaterID" style="text;html=1;align=center;verticalAlign=middle;whiteSpace=wrap;rounded=0;" vertex="1" parent="1">
          <mxGeometry x="120" y="25" width="80" height="30" as="geometry" />
        </mxCell>
        <mxCell id="iszFGnKtWHCGsxFUqVb4-65" value="" style="ellipse;whiteSpace=wrap;html=1;aspect=fixed;" vertex="1" parent="1">
          <mxGeometry x="90" y="-30" width="40" height="40" as="geometry" />
        </mxCell>
        <mxCell id="iszFGnKtWHCGsxFUqVb4-66" value="CinemaID" style="text;html=1;align=center;verticalAlign=middle;whiteSpace=wrap;rounded=0;" vertex="1" parent="1">
          <mxGeometry x="130" y="-25" width="60" height="30" as="geometry" />
        </mxCell>
        <mxCell id="iszFGnKtWHCGsxFUqVb4-67" value="" style="ellipse;whiteSpace=wrap;html=1;aspect=fixed;" vertex="1" parent="1">
          <mxGeometry x="90" y="-80" width="40" height="40" as="geometry" />
        </mxCell>
        <mxCell id="iszFGnKtWHCGsxFUqVb4-68" value="Name" style="text;html=1;align=center;verticalAlign=middle;whiteSpace=wrap;rounded=0;" vertex="1" parent="1">
          <mxGeometry x="130" y="-75" width="60" height="30" as="geometry" />
        </mxCell>
        <mxCell id="iszFGnKtWHCGsxFUqVb4-69" value="" style="ellipse;whiteSpace=wrap;html=1;aspect=fixed;" vertex="1" parent="1">
          <mxGeometry x="90" y="-130" width="40" height="40" as="geometry" />
        </mxCell>
        <mxCell id="iszFGnKtWHCGsxFUqVb4-70" value="Capacity" style="text;html=1;align=center;verticalAlign=middle;whiteSpace=wrap;rounded=0;" vertex="1" parent="1">
          <mxGeometry x="130" y="-125" width="60" height="30" as="geometry" />
        </mxCell>
        <mxCell id="iszFGnKtWHCGsxFUqVb4-72" value="" style="ellipse;whiteSpace=wrap;html=1;aspect=fixed;" vertex="1" parent="1">
          <mxGeometry x="90" y="-180" width="40" height="40" as="geometry" />
        </mxCell>
        <mxCell id="iszFGnKtWHCGsxFUqVb4-73" value="ScreenType" style="text;html=1;align=center;verticalAlign=middle;whiteSpace=wrap;rounded=0;" vertex="1" parent="1">
          <mxGeometry x="130" y="-175" width="70" height="30" as="geometry" />
        </mxCell>
        <mxCell id="iszFGnKtWHCGsxFUqVb4-88" value="" style="ellipse;whiteSpace=wrap;html=1;aspect=fixed;fillColor=#000000;" vertex="1" parent="1">
          <mxGeometry x="500" y="290" width="40" height="40" as="geometry" />
        </mxCell>
        <mxCell id="iszFGnKtWHCGsxFUqVb4-89" value="MovieID" style="text;html=1;align=center;verticalAlign=middle;whiteSpace=wrap;rounded=0;" vertex="1" parent="1">
          <mxGeometry x="530" y="295" width="80" height="30" as="geometry" />
        </mxCell>
        <mxCell id="iszFGnKtWHCGsxFUqVb4-90" value="" style="ellipse;whiteSpace=wrap;html=1;aspect=fixed;" vertex="1" parent="1">
          <mxGeometry x="500" y="240" width="40" height="40" as="geometry" />
        </mxCell>
        <mxCell id="iszFGnKtWHCGsxFUqVb4-91" value="Title" style="text;html=1;align=center;verticalAlign=middle;whiteSpace=wrap;rounded=0;" vertex="1" parent="1">
          <mxGeometry x="540" y="245" width="60" height="30" as="geometry" />
        </mxCell>
        <mxCell id="iszFGnKtWHCGsxFUqVb4-92" value="" style="ellipse;whiteSpace=wrap;html=1;aspect=fixed;" vertex="1" parent="1">
          <mxGeometry x="500" y="190" width="40" height="40" as="geometry" />
        </mxCell>
        <mxCell id="iszFGnKtWHCGsxFUqVb4-93" value="Director" style="text;html=1;align=center;verticalAlign=middle;whiteSpace=wrap;rounded=0;" vertex="1" parent="1">
          <mxGeometry x="540" y="195" width="60" height="30" as="geometry" />
        </mxCell>
        <mxCell id="iszFGnKtWHCGsxFUqVb4-94" value="" style="ellipse;whiteSpace=wrap;html=1;aspect=fixed;" vertex="1" parent="1">
          <mxGeometry x="500" y="140" width="40" height="40" as="geometry" />
        </mxCell>
        <mxCell id="iszFGnKtWHCGsxFUqVb4-95" value="ReleaseDate" style="text;html=1;align=center;verticalAlign=middle;whiteSpace=wrap;rounded=0;" vertex="1" parent="1">
          <mxGeometry x="540" y="145" width="90" height="30" as="geometry" />
        </mxCell>
        <mxCell id="iszFGnKtWHCGsxFUqVb4-96" value="" style="ellipse;whiteSpace=wrap;html=1;aspect=fixed;" vertex="1" parent="1">
          <mxGeometry x="500" y="90" width="40" height="40" as="geometry" />
        </mxCell>
        <mxCell id="iszFGnKtWHCGsxFUqVb4-97" value="DurationMinutes" style="text;html=1;align=center;verticalAlign=middle;whiteSpace=wrap;rounded=0;" vertex="1" parent="1">
          <mxGeometry x="540" y="95" width="100" height="30" as="geometry" />
        </mxCell>
        <mxCell id="iszFGnKtWHCGsxFUqVb4-99" value="" style="ellipse;whiteSpace=wrap;html=1;aspect=fixed;" vertex="1" parent="1">
          <mxGeometry x="500" y="40" width="40" height="40" as="geometry" />
        </mxCell>
        <mxCell id="iszFGnKtWHCGsxFUqVb4-100" value="Rating" style="text;html=1;align=center;verticalAlign=middle;whiteSpace=wrap;rounded=0;" vertex="1" parent="1">
          <mxGeometry x="540" y="45" width="70" height="30" as="geometry" />
        </mxCell>
        <mxCell id="iszFGnKtWHCGsxFUqVb4-109" value="" style="ellipse;whiteSpace=wrap;html=1;aspect=fixed;" vertex="1" parent="1">
          <mxGeometry x="-130" y="600" width="40" height="40" as="geometry" />
        </mxCell>
        <mxCell id="iszFGnKtWHCGsxFUqVb4-110" value="Price" style="text;html=1;align=center;verticalAlign=middle;whiteSpace=wrap;rounded=0;" vertex="1" parent="1">
          <mxGeometry x="-90" y="605" width="60" height="30" as="geometry" />
        </mxCell>
        <mxCell id="iszFGnKtWHCGsxFUqVb4-111" value="" style="ellipse;whiteSpace=wrap;html=1;aspect=fixed;" vertex="1" parent="1">
          <mxGeometry x="-130" y="550" width="40" height="40" as="geometry" />
        </mxCell>
        <mxCell id="iszFGnKtWHCGsxFUqVb4-112" value="ShowDateTime" style="text;html=1;align=center;verticalAlign=middle;whiteSpace=wrap;rounded=0;" vertex="1" parent="1">
          <mxGeometry x="-90" y="555" width="90" height="30" as="geometry" />
        </mxCell>
        <mxCell id="iszFGnKtWHCGsxFUqVb4-113" value="" style="ellipse;whiteSpace=wrap;html=1;aspect=fixed;" vertex="1" parent="1">
          <mxGeometry x="-130" y="500" width="40" height="40" as="geometry" />
        </mxCell>
        <mxCell id="iszFGnKtWHCGsxFUqVb4-114" value="TheaterID" style="text;html=1;align=center;verticalAlign=middle;whiteSpace=wrap;rounded=0;" vertex="1" parent="1">
          <mxGeometry x="-90" y="505" width="90" height="30" as="geometry" />
        </mxCell>
        <mxCell id="iszFGnKtWHCGsxFUqVb4-115" value="" style="ellipse;whiteSpace=wrap;html=1;aspect=fixed;" vertex="1" parent="1">
          <mxGeometry x="-130" y="450" width="40" height="40" as="geometry" />
        </mxCell>
        <mxCell id="iszFGnKtWHCGsxFUqVb4-116" value="" style="ellipse;whiteSpace=wrap;html=1;aspect=fixed;fillColor=#000000;" vertex="1" parent="1">
          <mxGeometry x="-130" y="400" width="40" height="40" as="geometry" />
        </mxCell>
        <mxCell id="iszFGnKtWHCGsxFUqVb4-117" value="ShowTimeID" style="text;html=1;align=center;verticalAlign=middle;whiteSpace=wrap;rounded=0;" vertex="1" parent="1">
          <mxGeometry x="-90" y="405" width="80" height="30" as="geometry" />
        </mxCell>
        <mxCell id="iszFGnKtWHCGsxFUqVb4-118" value="MovieID" style="text;html=1;align=center;verticalAlign=middle;whiteSpace=wrap;rounded=0;" vertex="1" parent="1">
          <mxGeometry x="-90" y="455" width="70" height="30" as="geometry" />
        </mxCell>
        <mxCell id="iszFGnKtWHCGsxFUqVb4-134" value="" style="ellipse;whiteSpace=wrap;html=1;aspect=fixed;" vertex="1" parent="1">
          <mxGeometry x="90" y="855" width="40" height="40" as="geometry" />
        </mxCell>
        <mxCell id="iszFGnKtWHCGsxFUqVb4-135" value="CustomerID" style="text;html=1;align=center;verticalAlign=middle;whiteSpace=wrap;rounded=0;" vertex="1" parent="1">
          <mxGeometry x="130" y="860" width="80" height="30" as="geometry" />
        </mxCell>
        <mxCell id="iszFGnKtWHCGsxFUqVb4-136" value="" style="ellipse;whiteSpace=wrap;html=1;aspect=fixed;" vertex="1" parent="1">
          <mxGeometry x="90" y="805" width="40" height="40" as="geometry" />
        </mxCell>
        <mxCell id="iszFGnKtWHCGsxFUqVb4-137" value="PurcaseDateTime" style="text;html=1;align=center;verticalAlign=middle;whiteSpace=wrap;rounded=0;" vertex="1" parent="1">
          <mxGeometry x="130" y="810" width="110" height="30" as="geometry" />
        </mxCell>
        <mxCell id="iszFGnKtWHCGsxFUqVb4-138" value="" style="ellipse;whiteSpace=wrap;html=1;aspect=fixed;" vertex="1" parent="1">
          <mxGeometry x="90" y="755" width="40" height="40" as="geometry" />
        </mxCell>
        <mxCell id="iszFGnKtWHCGsxFUqVb4-139" value="SeatNumber" style="text;html=1;align=center;verticalAlign=middle;whiteSpace=wrap;rounded=0;" vertex="1" parent="1">
          <mxGeometry x="130" y="760" width="90" height="30" as="geometry" />
        </mxCell>
        <mxCell id="iszFGnKtWHCGsxFUqVb4-140" value="" style="ellipse;whiteSpace=wrap;html=1;aspect=fixed;" vertex="1" parent="1">
          <mxGeometry x="90" y="705" width="40" height="40" as="geometry" />
        </mxCell>
        <mxCell id="iszFGnKtWHCGsxFUqVb4-141" value="" style="ellipse;whiteSpace=wrap;html=1;aspect=fixed;fillColor=#000000;" vertex="1" parent="1">
          <mxGeometry x="90" y="655" width="40" height="40" as="geometry" />
        </mxCell>
        <mxCell id="iszFGnKtWHCGsxFUqVb4-142" value="TicketID" style="text;html=1;align=center;verticalAlign=middle;whiteSpace=wrap;rounded=0;" vertex="1" parent="1">
          <mxGeometry x="130" y="660" width="80" height="30" as="geometry" />
        </mxCell>
        <mxCell id="iszFGnKtWHCGsxFUqVb4-143" value="ShowTimeID" style="text;html=1;align=center;verticalAlign=middle;whiteSpace=wrap;rounded=0;" vertex="1" parent="1">
          <mxGeometry x="130" y="710" width="80" height="30" as="geometry" />
        </mxCell>
        <mxCell id="iszFGnKtWHCGsxFUqVb4-149" value="" style="endArrow=none;html=1;rounded=0;" edge="1" parent="1">
          <mxGeometry width="50" height="50" relative="1" as="geometry">
            <mxPoint x="60" y="840" as="sourcePoint" />
            <mxPoint x="60" y="760" as="targetPoint" />
          </mxGeometry>
        </mxCell>
        <mxCell id="iszFGnKtWHCGsxFUqVb4-150" value="" style="endArrow=none;html=1;rounded=0;" edge="1" parent="1">
          <mxGeometry width="50" height="50" relative="1" as="geometry">
            <mxPoint x="-310" as="sourcePoint" />
            <mxPoint x="-310" y="-70" as="targetPoint" />
          </mxGeometry>
        </mxCell>
        <mxCell id="iszFGnKtWHCGsxFUqVb4-151" value="" style="endArrow=none;html=1;rounded=0;" edge="1" parent="1">
          <mxGeometry width="50" height="50" relative="1" as="geometry">
            <mxPoint x="70" y="-40" as="sourcePoint" />
            <mxPoint x="70" y="-130" as="targetPoint" />
          </mxGeometry>
        </mxCell>
        <mxCell id="iszFGnKtWHCGsxFUqVb4-152" value="" style="endArrow=none;html=1;rounded=0;" edge="1" parent="1">
          <mxGeometry width="50" height="50" relative="1" as="geometry">
            <mxPoint x="480" y="280" as="sourcePoint" />
            <mxPoint x="480" y="240" as="targetPoint" />
          </mxGeometry>
        </mxCell>
        <mxCell id="iszFGnKtWHCGsxFUqVb4-153" value="" style="endArrow=none;html=1;rounded=0;" edge="1" parent="1">
          <mxGeometry width="50" height="50" relative="1" as="geometry">
            <mxPoint x="-144" y="630" as="sourcePoint" />
            <mxPoint x="-144" y="560" as="targetPoint" />
          </mxGeometry>
        </mxCell>
        <mxCell id="iszFGnKtWHCGsxFUqVb4-154" value="" style="ellipse;whiteSpace=wrap;html=1;aspect=fixed;" vertex="1" parent="1">
          <mxGeometry x="500" y="855" width="40" height="40" as="geometry" />
        </mxCell>
        <mxCell id="iszFGnKtWHCGsxFUqVb4-155" value="PhoneNumber" style="text;html=1;align=center;verticalAlign=middle;whiteSpace=wrap;rounded=0;" vertex="1" parent="1">
          <mxGeometry x="540" y="860" width="90" height="30" as="geometry" />
        </mxCell>
        <mxCell id="iszFGnKtWHCGsxFUqVb4-156" value="" style="ellipse;whiteSpace=wrap;html=1;aspect=fixed;" vertex="1" parent="1">
          <mxGeometry x="500" y="805" width="40" height="40" as="geometry" />
        </mxCell>
        <mxCell id="iszFGnKtWHCGsxFUqVb4-157" value="Email" style="text;html=1;align=center;verticalAlign=middle;whiteSpace=wrap;rounded=0;" vertex="1" parent="1">
          <mxGeometry x="540" y="810" width="90" height="30" as="geometry" />
        </mxCell>
        <mxCell id="iszFGnKtWHCGsxFUqVb4-158" value="" style="ellipse;whiteSpace=wrap;html=1;aspect=fixed;" vertex="1" parent="1">
          <mxGeometry x="500" y="755" width="40" height="40" as="geometry" />
        </mxCell>
        <mxCell id="iszFGnKtWHCGsxFUqVb4-159" value="LastName" style="text;html=1;align=center;verticalAlign=middle;whiteSpace=wrap;rounded=0;" vertex="1" parent="1">
          <mxGeometry x="540" y="760" width="90" height="30" as="geometry" />
        </mxCell>
        <mxCell id="iszFGnKtWHCGsxFUqVb4-160" value="" style="ellipse;whiteSpace=wrap;html=1;aspect=fixed;" vertex="1" parent="1">
          <mxGeometry x="500" y="705" width="40" height="40" as="geometry" />
        </mxCell>
        <mxCell id="iszFGnKtWHCGsxFUqVb4-161" value="" style="ellipse;whiteSpace=wrap;html=1;aspect=fixed;fillColor=#000000;" vertex="1" parent="1">
          <mxGeometry x="500" y="655" width="40" height="40" as="geometry" />
        </mxCell>
        <mxCell id="iszFGnKtWHCGsxFUqVb4-162" value="CustomerID" style="text;html=1;align=center;verticalAlign=middle;whiteSpace=wrap;rounded=0;" vertex="1" parent="1">
          <mxGeometry x="540" y="660" width="80" height="30" as="geometry" />
        </mxCell>
        <mxCell id="iszFGnKtWHCGsxFUqVb4-163" value="FirstName" style="text;html=1;align=center;verticalAlign=middle;whiteSpace=wrap;rounded=0;" vertex="1" parent="1">
          <mxGeometry x="540" y="710" width="70" height="30" as="geometry" />
        </mxCell>
        <mxCell id="iszFGnKtWHCGsxFUqVb4-170" value="" style="endArrow=none;html=1;rounded=0;" edge="1" parent="1">
          <mxGeometry width="50" height="50" relative="1" as="geometry">
            <mxPoint x="480" y="790" as="sourcePoint" />
            <mxPoint x="480" y="710" as="targetPoint" />
          </mxGeometry>
        </mxCell>
        <mxCell id="iszFGnKtWHCGsxFUqVb4-171" value="" style="ellipse;whiteSpace=wrap;html=1;aspect=fixed;" vertex="1" parent="1">
          <mxGeometry x="840" y="670" width="40" height="40" as="geometry" />
        </mxCell>
        <mxCell id="iszFGnKtWHCGsxFUqVb4-172" value="Rating" style="text;html=1;align=center;verticalAlign=middle;whiteSpace=wrap;rounded=0;" vertex="1" parent="1">
          <mxGeometry x="880" y="675" width="60" height="30" as="geometry" />
        </mxCell>
        <mxCell id="iszFGnKtWHCGsxFUqVb4-173" value="" style="ellipse;whiteSpace=wrap;html=1;aspect=fixed;" vertex="1" parent="1">
          <mxGeometry x="840" y="620" width="40" height="40" as="geometry" />
        </mxCell>
        <mxCell id="iszFGnKtWHCGsxFUqVb4-174" value="ReviewText" style="text;html=1;align=center;verticalAlign=middle;whiteSpace=wrap;rounded=0;" vertex="1" parent="1">
          <mxGeometry x="880" y="625" width="90" height="30" as="geometry" />
        </mxCell>
        <mxCell id="iszFGnKtWHCGsxFUqVb4-175" value="" style="ellipse;whiteSpace=wrap;html=1;aspect=fixed;" vertex="1" parent="1">
          <mxGeometry x="840" y="570" width="40" height="40" as="geometry" />
        </mxCell>
        <mxCell id="iszFGnKtWHCGsxFUqVb4-176" value="CustomerID" style="text;html=1;align=center;verticalAlign=middle;whiteSpace=wrap;rounded=0;" vertex="1" parent="1">
          <mxGeometry x="880" y="575" width="90" height="30" as="geometry" />
        </mxCell>
        <mxCell id="iszFGnKtWHCGsxFUqVb4-177" value="" style="ellipse;whiteSpace=wrap;html=1;aspect=fixed;" vertex="1" parent="1">
          <mxGeometry x="840" y="520" width="40" height="40" as="geometry" />
        </mxCell>
        <mxCell id="iszFGnKtWHCGsxFUqVb4-178" value="" style="ellipse;whiteSpace=wrap;html=1;aspect=fixed;fillColor=#000000;" vertex="1" parent="1">
          <mxGeometry x="840" y="470" width="40" height="40" as="geometry" />
        </mxCell>
        <mxCell id="iszFGnKtWHCGsxFUqVb4-179" value="ReviewID" style="text;html=1;align=center;verticalAlign=middle;whiteSpace=wrap;rounded=0;" vertex="1" parent="1">
          <mxGeometry x="880" y="475" width="90" height="30" as="geometry" />
        </mxCell>
        <mxCell id="iszFGnKtWHCGsxFUqVb4-180" value="MovieID" style="text;html=1;align=center;verticalAlign=middle;whiteSpace=wrap;rounded=0;" vertex="1" parent="1">
          <mxGeometry x="880" y="525" width="70" height="30" as="geometry" />
        </mxCell>
        <mxCell id="iszFGnKtWHCGsxFUqVb4-181" value="" style="ellipse;whiteSpace=wrap;html=1;aspect=fixed;" vertex="1" parent="1">
          <mxGeometry x="840" y="715" width="40" height="40" as="geometry" />
        </mxCell>
        <mxCell id="iszFGnKtWHCGsxFUqVb4-182" value="ReviewDate" style="text;html=1;align=center;verticalAlign=middle;whiteSpace=wrap;rounded=0;" vertex="1" parent="1">
          <mxGeometry x="880" y="720" width="80" height="30" as="geometry" />
        </mxCell>
        <mxCell id="iszFGnKtWHCGsxFUqVb4-187" value="" style="endArrow=none;html=1;rounded=0;" edge="1" parent="1">
          <mxGeometry width="50" height="50" relative="1" as="geometry">
            <mxPoint x="823" y="747" as="sourcePoint" />
            <mxPoint x="823" y="677" as="targetPoint" />
          </mxGeometry>
        </mxCell>
        <mxCell id="iszFGnKtWHCGsxFUqVb4-190" value="" style="ellipse;whiteSpace=wrap;html=1;aspect=fixed;" vertex="1" parent="1">
          <mxGeometry x="-320" y="642" width="40" height="40" as="geometry" />
        </mxCell>
        <mxCell id="iszFGnKtWHCGsxFUqVb4-191" value="Position" style="text;html=1;align=center;verticalAlign=middle;whiteSpace=wrap;rounded=0;" vertex="1" parent="1">
          <mxGeometry x="-280" y="647" width="60" height="30" as="geometry" />
        </mxCell>
        <mxCell id="iszFGnKtWHCGsxFUqVb4-192" value="" style="ellipse;whiteSpace=wrap;html=1;aspect=fixed;" vertex="1" parent="1">
          <mxGeometry x="-320" y="592" width="40" height="40" as="geometry" />
        </mxCell>
        <mxCell id="iszFGnKtWHCGsxFUqVb4-193" value="LastName" style="text;html=1;align=center;verticalAlign=middle;whiteSpace=wrap;rounded=0;" vertex="1" parent="1">
          <mxGeometry x="-280" y="597" width="90" height="30" as="geometry" />
        </mxCell>
        <mxCell id="iszFGnKtWHCGsxFUqVb4-194" value="" style="ellipse;whiteSpace=wrap;html=1;aspect=fixed;" vertex="1" parent="1">
          <mxGeometry x="-320" y="542" width="40" height="40" as="geometry" />
        </mxCell>
        <mxCell id="iszFGnKtWHCGsxFUqVb4-195" value="FirstName" style="text;html=1;align=center;verticalAlign=middle;whiteSpace=wrap;rounded=0;" vertex="1" parent="1">
          <mxGeometry x="-280" y="547" width="90" height="30" as="geometry" />
        </mxCell>
        <mxCell id="iszFGnKtWHCGsxFUqVb4-196" value="" style="ellipse;whiteSpace=wrap;html=1;aspect=fixed;" vertex="1" parent="1">
          <mxGeometry x="-320" y="492" width="40" height="40" as="geometry" />
        </mxCell>
        <mxCell id="iszFGnKtWHCGsxFUqVb4-197" value="" style="ellipse;whiteSpace=wrap;html=1;aspect=fixed;fillColor=#000000;" vertex="1" parent="1">
          <mxGeometry x="-320" y="442" width="40" height="40" as="geometry" />
        </mxCell>
        <mxCell id="iszFGnKtWHCGsxFUqVb4-198" value="EmployeeID" style="text;html=1;align=center;verticalAlign=middle;whiteSpace=wrap;rounded=0;" vertex="1" parent="1">
          <mxGeometry x="-280" y="447" width="90" height="30" as="geometry" />
        </mxCell>
        <mxCell id="iszFGnKtWHCGsxFUqVb4-199" value="CinemaID" style="text;html=1;align=center;verticalAlign=middle;whiteSpace=wrap;rounded=0;" vertex="1" parent="1">
          <mxGeometry x="-280" y="497" width="70" height="30" as="geometry" />
        </mxCell>
        <mxCell id="iszFGnKtWHCGsxFUqVb4-200" value="" style="ellipse;whiteSpace=wrap;html=1;aspect=fixed;" vertex="1" parent="1">
          <mxGeometry x="-320" y="687" width="40" height="40" as="geometry" />
        </mxCell>
        <mxCell id="iszFGnKtWHCGsxFUqVb4-201" value="HireDate" style="text;html=1;align=center;verticalAlign=middle;whiteSpace=wrap;rounded=0;" vertex="1" parent="1">
          <mxGeometry x="-280" y="692" width="70" height="30" as="geometry" />
        </mxCell>
        <mxCell id="iszFGnKtWHCGsxFUqVb4-208" value="" style="endArrow=none;html=1;rounded=0;" edge="1" parent="1">
          <mxGeometry width="50" height="50" relative="1" as="geometry">
            <mxPoint x="-340" y="630" as="sourcePoint" />
            <mxPoint x="-340" y="540" as="targetPoint" />
          </mxGeometry>
        </mxCell>
      </root>
    </mxGraphModel>
  </diagram>
</mxfile>
